<?xml version="1.0" encoding="UTF-8" standalone="no"?><!DOCTYPE svg PUBLIC "-//W3C//DTD SVG 1.1//EN" "http://www.w3.org/Graphics/SVG/1.1/DTD/svg11.dtd"><svg width="100%" height="100%" viewBox="0 0 1536 864" version="1.1" xmlns="http://www.w3.org/2000/svg" xmlns:xlink="http://www.w3.org/1999/xlink" xml:space="preserve" xmlns:serif="http://www.serif.com/" style="fill-rule:evenodd;clip-rule:evenodd;stroke-linejoin:round;stroke-miterlimit:2;"><path d="M768,324l36,767.717l-72,0l36,-767.717Z" style="fill:url(#_Linear1);"/><path d="M768,324l-36,-767.717l72,-0l-36,767.717Z" style="fill:url(#_Linear2);"/><path d="M768,324l768,-36l0,72l-768,-36Z" style="fill:url(#_Linear3);"/><path d="M768,324l-768,36l0,-72l768,36Z" style="fill:url(#_Linear4);"/><path d="M768,324l568.313,517.402l-50.912,50.912l-517.402,-568.313Z" style="fill:url(#_Linear5);"/><path d="M768,324l-568.313,-517.402l50.912,-50.912l517.402,568.313Z" style="fill:url(#_Linear6);"/><path d="M768,324l517.602,-568.514l50.912,50.912l-568.514,517.602Z" style="fill:url(#_Linear7);"/><path d="M768,324l-517.602,568.514l-50.912,-50.912l568.514,-517.602Z" style="fill:url(#_Linear8);"/><path d="M768,324l327.052,695.501l-66.519,27.553l-260.533,-723.054Z" style="fill:url(#_Linear9);"/><path d="M768,324l-327.052,-695.501l66.519,-27.553l260.533,723.054Z" style="fill:url(#_Linear10);"/><path d="M768,324l695.763,-327.161l27.553,66.519l-723.316,260.641Z" style="fill:url(#_Linear11);"/><path d="M768,324l-695.763,327.161l-27.553,-66.519l723.316,-260.641Z" style="fill:url(#_Linear12);"/><path d="M768,324l723.054,260.533l-27.553,66.519l-695.501,-327.052Z" style="fill:url(#_Linear13);"/><path d="M768,324l-723.054,-260.533l27.553,-66.519l695.501,327.052Z" style="fill:url(#_Linear14);"/><path d="M768,324l260.641,-723.316l66.519,27.553l-327.161,695.763Z" style="fill:url(#_Linear15);"/><path d="M768,324l-260.641,723.316l-66.519,-27.553l327.161,-695.763Z" style="fill:url(#_Linear16);"/><defs><linearGradient id="_Linear1" x1="0" y1="0" x2="1" y2="0" gradientUnits="userSpaceOnUse" gradientTransform="matrix(0,767.716535,-4050,0,768,324)"><stop offset="0" style="stop-color:#ce9f41;stop-opacity:1"/><stop offset="1" style="stop-color:#fff;stop-opacity:1"/></linearGradient><linearGradient id="_Linear2" x1="0" y1="0" x2="1" y2="0" gradientUnits="userSpaceOnUse" gradientTransform="matrix(0,-767.716535,4050,0,768,324)"><stop offset="0" style="stop-color:#ce9f41;stop-opacity:1"/><stop offset="1" style="stop-color:#fff;stop-opacity:1"/></linearGradient><linearGradient id="_Linear3" x1="0" y1="0" x2="1" y2="0" gradientUnits="userSpaceOnUse" gradientTransform="matrix(768,0,0,4050,768,324)"><stop offset="0" style="stop-color:#ce9f41;stop-opacity:1"/><stop offset="1" style="stop-color:#fff;stop-opacity:1"/></linearGradient><linearGradient id="_Linear4" x1="0" y1="0" x2="1" y2="0" gradientUnits="userSpaceOnUse" gradientTransform="matrix(-768,-0,0,-4050,768,324)"><stop offset="0" style="stop-color:#ce9f41;stop-opacity:1"/><stop offset="1" style="stop-color:#fff;stop-opacity:1"/></linearGradient><linearGradient id="_Linear5" x1="0" y1="0" x2="1" y2="0" gradientUnits="userSpaceOnUse" gradientTransform="matrix(542.857568,542.857568,-2863.782464,2863.782464,768,324)"><stop offset="0" style="stop-color:#ce9f41;stop-opacity:1"/><stop offset="1" style="stop-color:#fff;stop-opacity:1"/></linearGradient><linearGradient id="_Linear6" x1="0" y1="0" x2="1" y2="0" gradientUnits="userSpaceOnUse" gradientTransform="matrix(-542.857568,-542.857568,2863.782464,-2863.782464,768,324)"><stop offset="0" style="stop-color:#ce9f41;stop-opacity:1"/><stop offset="1" style="stop-color:#fff;stop-opacity:1"/></linearGradient><linearGradient id="_Linear7" x1="0" y1="0" x2="1" y2="0" gradientUnits="userSpaceOnUse" gradientTransform="matrix(543.058008,-543.058008,2863.782464,2863.782464,768,324)"><stop offset="0" style="stop-color:#ce9f41;stop-opacity:1"/><stop offset="1" style="stop-color:#fff;stop-opacity:1"/></linearGradient><linearGradient id="_Linear8" x1="0" y1="0" x2="1" y2="0" gradientUnits="userSpaceOnUse" gradientTransform="matrix(-543.058008,543.058008,-2863.782464,-2863.782464,768,324)"><stop offset="0" style="stop-color:#ce9f41;stop-opacity:1"/><stop offset="1" style="stop-color:#fff;stop-opacity:1"/></linearGradient><linearGradient id="_Linear9" x1="0" y1="0" x2="1" y2="0" gradientUnits="userSpaceOnUse" gradientTransform="matrix(293.792399,709.277594,-3741.712107,1549.867901,768,324)"><stop offset="0" style="stop-color:#ce9f41;stop-opacity:1"/><stop offset="1" style="stop-color:#fff;stop-opacity:1"/></linearGradient><linearGradient id="_Linear10" x1="0" y1="0" x2="1" y2="0" gradientUnits="userSpaceOnUse" gradientTransform="matrix(-293.792399,-709.277594,3741.712107,-1549.867901,768,324)"><stop offset="0" style="stop-color:#ce9f41;stop-opacity:1"/><stop offset="1" style="stop-color:#fff;stop-opacity:1"/></linearGradient><linearGradient id="_Linear11" x1="0" y1="0" x2="1" y2="0" gradientUnits="userSpaceOnUse" gradientTransform="matrix(709.539481,-293.900876,1549.867901,3741.712107,768,324)"><stop offset="0" style="stop-color:#ce9f41;stop-opacity:1"/><stop offset="1" style="stop-color:#fff;stop-opacity:1"/></linearGradient><linearGradient id="_Linear12" x1="0" y1="0" x2="1" y2="0" gradientUnits="userSpaceOnUse" gradientTransform="matrix(-709.539481,293.900876,-1549.867901,-3741.712107,768,324)"><stop offset="0" style="stop-color:#ce9f41;stop-opacity:1"/><stop offset="1" style="stop-color:#fff;stop-opacity:1"/></linearGradient><linearGradient id="_Linear13" x1="0" y1="0" x2="1" y2="0" gradientUnits="userSpaceOnUse" gradientTransform="matrix(709.277594,293.792399,-1549.867901,3741.712107,768,324)"><stop offset="0" style="stop-color:#ce9f41;stop-opacity:1"/><stop offset="1" style="stop-color:#fff;stop-opacity:1"/></linearGradient><linearGradient id="_Linear14" x1="0" y1="0" x2="1" y2="0" gradientUnits="userSpaceOnUse" gradientTransform="matrix(-709.277594,-293.792399,1549.867901,-3741.712107,768,324)"><stop offset="0" style="stop-color:#ce9f41;stop-opacity:1"/><stop offset="1" style="stop-color:#fff;stop-opacity:1"/></linearGradient><linearGradient id="_Linear15" x1="0" y1="0" x2="1" y2="0" gradientUnits="userSpaceOnUse" gradientTransform="matrix(293.900876,-709.539481,3741.712107,1549.867901,768,324)"><stop offset="0" style="stop-color:#ce9f41;stop-opacity:1"/><stop offset="1" style="stop-color:#fff;stop-opacity:1"/></linearGradient><linearGradient id="_Linear16" x1="0" y1="0" x2="1" y2="0" gradientUnits="userSpaceOnUse" gradientTransform="matrix(-293.900876,709.539481,-3741.712107,-1549.867901,768,324)"><stop offset="0" style="stop-color:#ce9f41;stop-opacity:1"/><stop offset="1" style="stop-color:#fff;stop-opacity:1"/></linearGradient></defs></svg>